<?xml version="1.0" encoding="UTF-8"?>
<svg id="_Слой_1" data-name="Слой 1" xmlns="http://www.w3.org/2000/svg" viewBox="0 0 400 128">
  <defs>
    <style>
      .cls-1, .cls-2 {
        stroke-width: 0px;
      }

      .cls-2 {
        fill: #d21;
      }
    </style>
  </defs>
  <polygon class="cls-2" points="164.28 32 206.95 74.67 142.95 74.67 185.61 32 185.61 96 142.95 53.33 206.95 53.33 164.28 96 164.28 32"/>
  <g>
    <path class="cls-1" d="m4.82,51.66h6.66l7.49,9.14,7.52-9.14h6.66v24.36h-7.35v-14.11l-6.63,8.17h-.58l-6.64-8.17v14.11h-7.14v-24.36Z"/>
    <path class="cls-1" d="m47.83,64.11c1.07,0,2.04.13,2.94.38s1.66.63,2.31,1.13,1.16,1.12,1.52,1.86.54,1.59.54,2.57c0,.75-.12,1.49-.37,2.21s-.66,1.36-1.25,1.92-1.36,1-2.33,1.34-2.17.51-3.61.51h-9.32v-17.89h6.33v5.98h3.23Zm-3.23,8.03h1.55c.5,0,.93-.05,1.27-.16s.62-.25.83-.43.36-.4.45-.64.13-.51.13-.79c0-.62-.2-1.13-.6-1.53s-1.03-.6-1.9-.6h-1.72v4.15Zm19.76-14.01v17.89h-6.33v-17.89h6.33Z"/>
    <path class="cls-1" d="m81.18,64.21v-6.08h6.33v17.89h-6.33v-6.91h-6.45v6.91h-6.33v-17.89h6.33v6.08h6.45Z"/>
    <path class="cls-1" d="m91.39,60.26c1.21-.84,2.53-1.46,3.96-1.85s2.93-.59,4.47-.59c1.34,0,2.49.13,3.47.4s1.79.65,2.43,1.14,1.12,1.08,1.43,1.78.47,1.46.47,2.32v6.91c0,.63.06,1.12.18,1.45s.35.5.69.5c.15,0,.31-.02.47-.06s.31-.09.46-.14.28-.11.4-.17.22-.11.3-.14v3.32c-.32.13-.66.26-1.02.4s-.76.27-1.2.4-.92.22-1.45.3-1.1.11-1.72.11-1.08-.07-1.46-.2-.67-.3-.9-.5-.38-.41-.48-.62-.17-.41-.22-.57c-.25.2-.53.41-.84.63s-.69.43-1.13.62-.95.34-1.53.47-1.26.18-2.03.18c-1.05,0-1.92-.14-2.61-.43s-1.23-.65-1.63-1.09-.69-.92-.84-1.45-.24-1.04-.24-1.53c0-.87.17-1.61.52-2.22.35-.61.82-1.15,1.42-1.59s1.32-.83,2.15-1.16,1.73-.64,2.71-.95c.68-.22,1.22-.4,1.63-.53s.74-.23.98-.32.45-.16.6-.22.32-.14.49-.24c0-.34-.03-.67-.08-1s-.17-.62-.36-.89-.47-.48-.84-.64-.88-.25-1.53-.25c-.76,0-1.49.1-2.17.29s-1.33.45-1.92.76-1.15.66-1.65,1.05-.96.78-1.35,1.18v-4.85Zm9.91,7.21c-.62.26-1.2.51-1.72.75s-.98.5-1.37.76c-.39.27-.69.57-.91.91s-.33.74-.33,1.2c0,.33.05.61.15.84s.23.42.4.57.35.25.55.33.41.11.62.11c.26,0,.52-.05.77-.14s.5-.21.73-.33.44-.26.63-.4.35-.26.47-.35v-4.24Z"/>
    <path class="cls-1" d="m124.12,66.95l5.78-8.82h4.97l1.55,17.89h-6.05l-.79-8.42-5.47,8.42-5.48-8.42-.79,8.42h-6.05l1.55-17.89h4.97l5.8,8.82Z"/>
  </g>
  <g>
    <path class="cls-1" d="m211.95,51.55h7.63l6.29,13.71,5.01-13.71h7.66l-10.37,24.54c-.43,1.02-.9,1.88-1.39,2.59s-1.03,1.28-1.62,1.72-1.22.76-1.91.95-1.44.29-2.28.29c-.57,0-1.14-.04-1.69-.13s-1.07-.2-1.56-.34-.94-.29-1.35-.45-.76-.31-1.05-.45v-5.15c.7.36,1.42.64,2.16.84s1.46.3,2.16.3c.75,0,1.35-.18,1.81-.53s.78-.98.97-1.88l-10.48-22.31Z"/>
    <path class="cls-1" d="m244.48,75.91v3.64h-5.94v-8.28h2.53l6.43-13.25h5.12l6.31,13.25h2.51v8.28h-5.94v-3.64h-11.02Zm2.74-4.64h5.5l-2.72-6.7-2.78,6.7Z"/>
    <path class="cls-1" d="m275.77,66.84l5.78-8.82h4.97l1.55,17.89h-6.05l-.79-8.42-5.47,8.42-5.48-8.42-.79,8.42h-6.05l1.55-17.89h4.97l5.8,8.82Z"/>
    <path class="cls-1" d="m297.08,58.02l3.64,8.89,4.13-8.89h6.15l-12.16,26.03h-6.4l4.92-10.48-7.08-15.56h6.8Z"/>
    <path class="cls-1" d="m319.1,58.02v1.62c.18-.15.4-.34.69-.56s.63-.43,1.05-.63.91-.37,1.49-.52,1.24-.22,2-.22c.6,0,1.22.07,1.85.22s1.26.38,1.86.69,1.17.71,1.71,1.2,1,1.07,1.41,1.74.72,1.45.96,2.33.35,1.87.35,2.97c0,.77-.07,1.54-.22,2.3s-.37,1.49-.67,2.19-.68,1.34-1.14,1.94-1.01,1.12-1.65,1.56-1.36.78-2.17,1.03-1.72.37-2.72.37c-.68,0-1.27-.05-1.78-.14s-.95-.21-1.33-.34-.7-.28-.97-.44-.5-.3-.71-.43v9.18h-6.33v-26.03h6.33Zm0,12.53c.48.28.97.54,1.47.78s1.08.36,1.73.36c.49,0,.95-.11,1.37-.32s.79-.52,1.11-.92.57-.9.75-1.48.27-1.25.27-2c0-.87-.11-1.59-.33-2.17s-.5-1.05-.83-1.4-.71-.6-1.12-.75-.81-.22-1.21-.22c-.45,0-.84.05-1.19.15s-.65.22-.91.35-.49.27-.67.41-.33.26-.43.35v6.84Z"/>
    <path class="cls-1" d="m345.86,75.91h-6.33v-12.99h-5.45v-4.9h17.21v4.9h-5.43v12.99Z"/>
    <path class="cls-1" d="m359.83,58.02v8.86l7.66-8.86h5.29v17.89h-6.15v-9.14l-7.73,9.14h-5.22v-17.89h6.15Z"/>
    <path class="cls-1" d="m395.18,68.49h-12.6c.12.56.33,1.07.65,1.52s.7.84,1.16,1.17.97.58,1.53.76,1.14.26,1.74.26c1.21,0,2.4-.17,3.59-.5s2.34-.76,3.48-1.29v3.92c-.23.13-.58.3-1.04.51s-1.03.42-1.73.62-1.51.38-2.45.54-2,.23-3.18.23c-1.71,0-3.21-.24-4.49-.73s-2.35-1.15-3.2-2-1.49-1.83-1.92-2.97-.64-2.36-.64-3.66.21-2.51.64-3.62,1.07-2.08,1.92-2.91,1.92-1.47,3.2-1.94,2.78-.7,4.49-.7c1.01,0,2.03.16,3.08.47s2,.85,2.86,1.59,1.56,1.73,2.11,2.94.82,2.72.82,4.52v1.27Zm-5.94-3.13c0-.56-.07-1.08-.22-1.55s-.36-.87-.64-1.2-.63-.58-1.04-.76-.88-.27-1.41-.27-.99.09-1.42.27-.81.44-1.12.76-.55.73-.73,1.2-.26.98-.26,1.55h6.84Z"/>
  </g>
</svg>